<?xml version="1.0" encoding="UTF-8" standalone="no"?>
<!-- Created with Inkscape (http://www.inkscape.org/) -->

<svg
   width="544"
   height="480"
   viewBox="0 0 143.93334 127"
   version="1.1"
   id="svg5"
   inkscape:version="1.1.1 (3bf5ae0d25, 2021-09-20)"
   sodipodi:docname="konohaJiraiya.svg"
   xmlns:inkscape="http://www.inkscape.org/namespaces/inkscape"
   xmlns:sodipodi="http://sodipodi.sourceforge.net/DTD/sodipodi-0.dtd"
   xmlns="http://www.w3.org/2000/svg"
   xmlns:svg="http://www.w3.org/2000/svg">
  <sodipodi:namedview
     id="namedview7"
     pagecolor="#505050"
     bordercolor="#eeeeee"
     borderopacity="1"
     inkscape:pageshadow="0"
     inkscape:pageopacity="0"
     inkscape:pagecheckerboard="0"
     inkscape:document-units="mm"
     showgrid="false"
     inkscape:zoom="1.28"
     inkscape:cx="-35.546875"
     inkscape:cy="287.89063"
     inkscape:window-width="1600"
     inkscape:window-height="829"
     inkscape:window-x="-8"
     inkscape:window-y="-8"
     inkscape:window-maximized="1"
     inkscape:current-layer="layer1"
     showborder="true"
     units="px" />
  <defs
     id="defs2" />
  <g
     inkscape:label="Layer 1"
     inkscape:groupmode="layer"
     id="layer1">
    <path
       style="color:#000000;opacity:1;fill:#953f45;stroke-width:2.25078;stroke-linecap:square;-inkscape-stroke:none;stroke:none;stroke-opacity:1;fill-opacity:1"
       d="m 129.74415,17.256671 -2.27274,1.956239 -17.1622,14.744368 c -0.92325,-0.678994 -1.40505,-1.053904 -3.16516,-2.268361 -2.85639,-1.970846 -6.19086,-4.185142 -8.928394,-5.393968 -6.77817,-2.993048 -14.30469,-4.99266 -21.914325,-4.993918 -9.204953,-0.0013 -16.053196,1.259107 -24.411289,5.429125 -6.63579,3.310744 -12.776132,8.232049 -17.087464,14.445441 -4.674852,6.73728 -6.323832,13.935795 -6.923787,16.894037 v 0 l -0.650617,2.475294 -16.951187,49.147832 4.158667,0.0439 c 0,0 29.38066,0.0785 53.87365,-0.30334 2.864281,0.2685 5.7262,0.23336 8.572305,-0.0484 0.365679,-0.009 0.48598,0.007 0.848447,-0.004 0.03511,-0.001 0.07022,-0.0158 0.10556,-0.018 0.05963,-0.007 0.120646,0.003 0.180292,-0.004 l 2.976136,-0.37366 -0.018,-0.14517 c 8.034109,-1.30053 15.944328,-6.19039 20.977976,-12.607846 4.88475,-6.227681 7.59397,-13.815016 6.25998,-23.510071 -2.3348,-16.968431 -16.713767,-31.778694 -35.115683,-29.69976 -8.233285,0.930176 -16.195626,6.08289 -19.619591,13.869555 -3.255922,7.404566 -2.030193,14.70801 1.099013,20.577934 2.809274,5.269771 8.045341,10.120718 14.555336,10.801111 5.274394,0.551256 11.297759,-1.598305 14.005828,-6.76553 1.303247,-2.486683 1.869633,-5.465213 1.529836,-8.458005 -0.339823,-2.992817 -1.740235,-6.162205 -4.699383,-8.027203 -4.946828,-3.416731 -7.81079,2.352472 -3.200337,5.073054 1.106503,0.697362 1.745163,1.926873 1.938664,3.63114 0.193564,1.704267 -0.216752,3.721684 -0.883611,4.993917 -1.064546,2.031258 -5.258031,3.880723 -8.066758,3.587178 -3.644866,-0.380943 -7.892905,-3.917821 -9.886725,-7.657917 -2.511747,-4.711672 -3.382186,-9.699984 -0.901192,-15.34224 2.388625,-5.432144 8.685726,-9.630998 14.801512,-10.321938 14.887987,-1.681967 26.548481,10.376343 28.499621,24.556366 1.14028,8.287168 -0.87614,13.685055 -5.037881,18.99095 -4.523226,5.766737 -12.880866,10.517705 -19.417355,10.809835 l -0.369285,0.0439 c -3.730635,0.10399 -4.789245,-0.0158 -8.756932,0.0484 C 61.216156,102.69265 53.851822,99.865973 47.819003,94.81217 39.521546,87.861198 33.618504,76.852203 33.263666,61.252698 c 0.09237,-0.479818 1.983914,-10.196299 6.466597,-16.656645 3.62685,-5.226942 9.01253,-9.592196 14.836684,-12.497973 7.668569,-3.826014 13.028291,-4.797519 21.734093,-4.796102 6.549321,0.0013 13.317862,1.757612 19.492114,4.483985 1.798652,0.794234 5.199426,2.946584 7.943646,4.840056 2.74424,1.893464 4.93238,3.538807 4.93238,3.538807 l 1.92986,1.45511 20.78015,-17.856791 2.27716,-1.956239 z M 28.90747,74.075674 c 2.577066,10.852924 7.994309,19.414615 15.060882,25.334422 1.928034,1.615154 4.038795,2.893584 6.163268,4.127874 -13.153191,0.0227 -29.153655,0.20301 -31.449374,0.18028 z"
       id="path11783"
       sodipodi:nodetypes="cccssssscccccccsccccsssssssscccscsssssscccscsssssccccccscc" />
  </g>
</svg>
